<svg width="500" height="500" viewBox="0 0 500 500" fill="none" xmlns="http://www.w3.org/2000/svg">
<g filter="url(#filter0_d_713_80995)">
<rect width="188.659" height="100.82" transform="matrix(0.866025 0.5 -0.866025 0.5 199.811 299.168)" fill="#0A0300"/>
</g>
<rect width="210" height="40" transform="matrix(0.866025 0.5 -0.866025 0.5 267.685 200)" fill="#F3CF00"/>
<rect width="210" height="40" transform="matrix(0.866025 0.5 0 1 233.044 220)" fill="#C8AA00"/>
<rect width="40" height="40" transform="matrix(0.866025 -0.5 0 1 414.909 325)" fill="#7F6C00"/>
<rect width="210" height="40" transform="matrix(0.866025 0.5 -0.866025 0.5 233.044 220)" fill="#DFBD00"/>
<rect width="210" height="40" transform="matrix(0.866025 0.5 0 1 198.403 240)" fill="#B49900"/>
<rect width="40" height="40" transform="matrix(0.866025 -0.5 0 1 380.268 345)" fill="#6B5B00"/>
<rect width="210" height="40" transform="matrix(0.866025 0.5 -0.866025 0.5 198.403 240)" fill="#F3CF00"/>
<rect width="210" height="40" transform="matrix(0.866025 0.5 0 1 163.762 260)" fill="#C8AA00"/>
<rect width="40" height="40" transform="matrix(0.866025 -0.5 0 1 345.627 365)" fill="#7F6C00"/>
<rect width="210" height="40" transform="matrix(0.866025 0.5 -0.866025 0.5 163.762 260)" fill="#DFBD00"/>
<rect width="210" height="40" transform="matrix(0.866025 0.5 0 1 129.121 280)" fill="#B49900"/>
<rect width="40" height="40" transform="matrix(0.866025 -0.5 0 1 310.986 385)" fill="#6B5B00"/>
<rect width="210" height="40" transform="matrix(0.866025 0.5 -0.866025 0.5 129.121 280)" fill="#F3CF00"/>
<rect width="210" height="40" transform="matrix(0.866025 0.5 0 1 94.48 300)" fill="#C8AA00"/>
<rect width="40" height="40" transform="matrix(0.866025 -0.5 0 1 276.345 405)" fill="#7F6C00"/>
<defs>
<filter id="filter0_d_713_80995" x="97.498" y="296.168" width="280.696" height="174.738" filterUnits="userSpaceOnUse" color-interpolation-filters="sRGB">
<feFlood flood-opacity="0" result="BackgroundImageFix"/>
<feColorMatrix in="SourceAlpha" type="matrix" values="0 0 0 0 0 0 0 0 0 0 0 0 0 0 0 0 0 0 127 0" result="hardAlpha"/>
<feOffset dy="12"/>
<feGaussianBlur stdDeviation="7.5"/>
<feColorMatrix type="matrix" values="0 0 0 0 0.04 0 0 0 0 0.012 0 0 0 0 0 0 0 0 0.5 0"/>
<feBlend mode="normal" in2="BackgroundImageFix" result="effect1_dropShadow_713_80995"/>
<feBlend mode="normal" in="SourceGraphic" in2="effect1_dropShadow_713_80995" result="shape"/>
</filter>
</defs>
</svg>
