<svg width="500" height="500" viewBox="0 0 500 500" fill="none" xmlns="http://www.w3.org/2000/svg">
<g filter="url(#filter0_d_713_80995)">
<rect width="116.54" height="176.175" transform="matrix(0.866025 0.5 -0.866025 0.5 266.572 262.484)" fill="black"/>
</g>
<rect width="140" height="40" transform="matrix(0.866025 0.5 -0.866025 0.5 267.685 200)" fill="#0CB600"/>
<rect width="140" height="40" transform="matrix(0.866025 0.5 0 1 233.044 220)" fill="#098B00"/>
<rect width="40" height="40" transform="matrix(0.866025 -0.5 0 1 354.288 290)" fill="#044200"/>
<rect width="140" height="40" transform="matrix(0.866025 0.5 -0.866025 0.5 233.044 220)" fill="#0BA200"/>
<rect width="140" height="40" transform="matrix(0.866025 0.5 0 1 198.403 240)" fill="#087700"/>
<rect width="40" height="40" transform="matrix(0.866025 -0.5 0 1 319.646 310)" fill="#032D00"/>
<rect width="140" height="40" transform="matrix(0.866025 0.5 -0.866025 0.5 198.403 240)" fill="#0CB600"/>
<rect width="140" height="40" transform="matrix(0.866025 0.5 0 1 163.762 260)" fill="#098B00"/>
<rect width="40" height="40" transform="matrix(0.866025 -0.5 0 1 285.006 330)" fill="#044200"/>
<rect width="140" height="40" transform="matrix(0.866025 0.5 -0.866025 0.5 163.762 260)" fill="#0BA200"/>
<rect width="140" height="40" transform="matrix(0.866025 0.5 0 1 129.121 280)" fill="#087700"/>
<rect width="40" height="40" transform="matrix(0.866025 -0.5 0 1 250.365 350)" fill="#032D00"/>
<rect width="140" height="40" transform="matrix(0.866025 0.5 -0.866025 0.5 129.121 280)" fill="#0CB600"/>
<rect width="140" height="40" transform="matrix(0.866025 0.5 0 1 94.48 300)" fill="#098B00"/>
<rect width="40" height="40" transform="matrix(0.866025 -0.5 0 1 215.724 370)" fill="#044200"/>
<defs>
<filter id="filter0_d_713_80995" x="99" y="259.484" width="283.499" height="176.359" filterUnits="userSpaceOnUse" color-interpolation-filters="sRGB">
<feFlood flood-opacity="0" result="BackgroundImageFix"/>
<feColorMatrix in="SourceAlpha" type="matrix" values="0 0 0 0 0 0 0 0 0 0 0 0 0 0 0 0 0 0 127 0" result="hardAlpha"/>
<feOffset dy="12"/>
<feGaussianBlur stdDeviation="7.5"/>
<feColorMatrix type="matrix" values="0 0 0 0 0 0 0 0 0 0 0 0 0 0 0 0 0 0 0.5 0"/>
<feBlend mode="normal" in2="BackgroundImageFix" result="effect1_dropShadow_713_80995"/>
<feBlend mode="normal" in="SourceGraphic" in2="effect1_dropShadow_713_80995" result="shape"/>
</filter>
</defs>
</svg>
