<svg width="500" height="500" viewBox="0 0 500 500" fill="none" xmlns="http://www.w3.org/2000/svg">
<g filter="url(#filter0_d_713_80995)">
<rect width="188.717" height="100.82" transform="matrix(0.866025 0.5 -0.866025 0.5 199.761 299.141)" fill="#0A0300"/>
</g>
<rect width="220" height="40" transform="matrix(0.866025 0.5 -0.866025 0.5 267.685 200)" fill="#4D4D4D"/>
<rect width="220" height="40" transform="matrix(0.866025 0.5 0 1 233.044 220)" fill="#262626"/>
<rect width="40" height="40" transform="matrix(0.866025 -0.5 0 1 423.569 330)" fill="#121212"/>
<rect width="220" height="40" transform="matrix(0.866025 0.5 -0.866025 0.5 233.044 220)" fill="#404040"/>
<rect width="220" height="40" transform="matrix(0.866025 0.5 0 1 198.403 240)" fill="#1A1A1A"/>
<rect width="40" height="40" transform="matrix(0.866025 -0.5 0 1 388.928 350)" fill="black"/>
<rect width="220" height="40" transform="matrix(0.866025 0.5 -0.866025 0.5 198.403 240)" fill="#4D4D4D"/>
<rect width="220" height="40" transform="matrix(0.866025 0.5 0 1 163.762 260)" fill="#262626"/>
<rect width="40" height="40" transform="matrix(0.866025 -0.5 0 1 354.288 370)" fill="#121212"/>
<rect width="220" height="40" transform="matrix(0.866025 0.5 -0.866025 0.5 163.762 260)" fill="#404040"/>
<rect width="220" height="40" transform="matrix(0.866025 0.5 0 1 129.121 280)" fill="#1A1A1A"/>
<rect width="40" height="40" transform="matrix(0.866025 -0.5 0 1 319.646 390)" fill="black"/>
<rect width="220" height="40" transform="matrix(0.866025 0.5 -0.866025 0.5 129.121 280)" fill="#4D4D4D"/>
<rect width="220" height="40" transform="matrix(0.866025 0.5 0 1 94.48 300)" fill="#262626"/>
<rect width="40" height="40" transform="matrix(0.866025 -0.5 0 1 285.005 410)" fill="#121212"/>
<defs>
<filter id="filter0_d_713_80995" x="97.4482" y="296.141" width="280.746" height="174.77" filterUnits="userSpaceOnUse" color-interpolation-filters="sRGB">
<feFlood flood-opacity="0" result="BackgroundImageFix"/>
<feColorMatrix in="SourceAlpha" type="matrix" values="0 0 0 0 0 0 0 0 0 0 0 0 0 0 0 0 0 0 127 0" result="hardAlpha"/>
<feOffset dy="12"/>
<feGaussianBlur stdDeviation="7.5"/>
<feColorMatrix type="matrix" values="0 0 0 0 0.04 0 0 0 0 0.012 0 0 0 0 0 0 0 0 0.5 0"/>
<feBlend mode="normal" in2="BackgroundImageFix" result="effect1_dropShadow_713_80995"/>
<feBlend mode="normal" in="SourceGraphic" in2="effect1_dropShadow_713_80995" result="shape"/>
</filter>
</defs>
</svg>
