<svg width="500" height="500" viewBox="0 0 500 500" fill="none" xmlns="http://www.w3.org/2000/svg">
<g filter="url(#filter0_d_713_80995)">
<rect width="157.434" height="138.617" transform="matrix(0.866025 0.5 -0.866025 0.5 234.046 281.262)" fill="#000501"/>
</g>
<rect width="180" height="40" transform="matrix(0.866025 0.5 -0.866025 0.5 267.685 200)" fill="#F19896"/>
<rect width="180" height="40" transform="matrix(0.866025 0.5 0 1 233.044 220)" fill="#EC7270"/>
<rect width="40" height="40" transform="matrix(0.866025 -0.5 0 1 388.929 310)" fill="#D14947"/>
<rect width="180" height="40" transform="matrix(0.866025 0.5 -0.866025 0.5 233.044 220)" fill="#EE8684"/>
<rect width="180" height="40" transform="matrix(0.866025 0.5 0 1 198.403 240)" fill="#E9615E"/>
<rect width="40" height="40" transform="matrix(0.866025 -0.5 0 1 354.288 330)" fill="#CD3937"/>
<rect width="180" height="40" transform="matrix(0.866025 0.5 -0.866025 0.5 198.403 240)" fill="#F19896"/>
<rect width="180" height="40" transform="matrix(0.866025 0.5 0 1 163.762 260)" fill="#EC7270"/>
<rect width="40" height="40" transform="matrix(0.866025 -0.5 0 1 319.647 350)" fill="#D14947"/>
<rect width="180" height="40" transform="matrix(0.866025 0.5 -0.866025 0.5 163.762 260)" fill="#EE8684"/>
<rect width="180" height="40" transform="matrix(0.866025 0.5 0 1 129.121 280)" fill="#E9615E"/>
<rect width="40" height="40" transform="matrix(0.866025 -0.5 0 1 285.006 370)" fill="#CD3937"/>
<rect width="180" height="40" transform="matrix(0.866025 0.5 -0.866025 0.5 129.121 280)" fill="#F19896"/>
<rect width="180" height="40" transform="matrix(0.866025 0.5 0 1 94.48 300)" fill="#EC7270"/>
<rect width="40" height="40" transform="matrix(0.866025 -0.5 0 1 250.365 390)" fill="#D14947"/>
<mask id="mask0_713_80995" style="mask-type:alpha" maskUnits="userSpaceOnUse" x="235" y="361" width="30" height="17">
<rect width="18" height="16" transform="matrix(0.866025 0.5 -0.866025 0.5 248.856 361)" fill="#A49494"/>
</mask>
<g mask="url(#mask0_713_80995)">
<rect width="18" height="20" transform="matrix(0.866025 0.5 0 1 248.856 361)" fill="#E1615F"/>
<rect width="16" height="20" transform="matrix(0.866025 -0.5 0 1 235 369)" fill="#D93E3B"/>
</g>
<mask id="mask1_713_80995" style="mask-type:alpha" maskUnits="userSpaceOnUse" x="373" y="281" width="30" height="18">
<rect width="18" height="16" transform="matrix(0.866025 0.5 -0.866025 0.5 387.116 281.18)" fill="#A49494"/>
</mask>
<g mask="url(#mask1_713_80995)">
<rect width="18" height="20" transform="matrix(0.866025 0.5 0 1 387.116 281.18)" fill="#E1615F"/>
<rect width="16" height="20" transform="matrix(0.866025 -0.5 0 1 373.26 289.18)" fill="#D93E3B"/>
</g>
<defs>
<filter id="filter0_d_713_80995" x="99" y="278.262" width="286.388" height="178.027" filterUnits="userSpaceOnUse" color-interpolation-filters="sRGB">
<feFlood flood-opacity="0" result="BackgroundImageFix"/>
<feColorMatrix in="SourceAlpha" type="matrix" values="0 0 0 0 0 0 0 0 0 0 0 0 0 0 0 0 0 0 127 0" result="hardAlpha"/>
<feOffset dy="12"/>
<feGaussianBlur stdDeviation="7.5"/>
<feColorMatrix type="matrix" values="0 0 0 0 0.0013 0 0 0 0 0.0187 0 0 0 0 0.00507 0 0 0 0.5 0"/>
<feBlend mode="normal" in2="BackgroundImageFix" result="effect1_dropShadow_713_80995"/>
<feBlend mode="normal" in="SourceGraphic" in2="effect1_dropShadow_713_80995" result="shape"/>
</filter>
</defs>
</svg>
