<svg width="500" height="500" viewBox="0 0 500 500" fill="none" xmlns="http://www.w3.org/2000/svg">
<mask id="mask0_713_80995" style="mask-type:alpha" maskUnits="userSpaceOnUse" x="227" y="246" width="118" height="80">
<rect width="136" height="12" transform="matrix(0.866025 -0.5 0 1 227 314)" fill="black"/>
</mask>
<g mask="url(#mask0_713_80995)">
<rect width="52" height="12" transform="matrix(0.866025 0.5 0 1 299.746 220)" fill="#AA0025"/>
<rect width="136" height="52" transform="matrix(0.866025 -0.5 0.866025 0.5 181.967 300)" fill="#D5002E"/>
<rect width="136" height="12" transform="matrix(0.866025 -0.5 0 1 181.967 288)" fill="#600015"/>
</g>
<mask id="mask1_713_80995" style="mask-type:alpha" maskUnits="userSpaceOnUse" x="227" y="221" width="118" height="80">
<rect width="136" height="12" transform="matrix(0.866025 -0.5 0 1 227 289)" fill="black"/>
</mask>
<g mask="url(#mask1_713_80995)">
<rect width="52" height="12" transform="matrix(0.866025 0.5 0 1 299.746 195)" fill="#AA0025"/>
<rect width="136" height="52" transform="matrix(0.866025 -0.5 0.866025 0.5 181.967 275)" fill="#D5002E"/>
<rect width="136" height="12" transform="matrix(0.866025 -0.5 0 1 181.967 263)" fill="#600015"/>
</g>
<mask id="mask2_713_80995" style="mask-type:alpha" maskUnits="userSpaceOnUse" x="227" y="196" width="118" height="80">
<rect width="136" height="12" transform="matrix(0.866025 -0.5 0 1 227 264)" fill="black"/>
</mask>
<g mask="url(#mask2_713_80995)">
<rect width="52" height="12" transform="matrix(0.866025 0.5 0 1 299.746 170)" fill="#AA0025"/>
<rect width="136" height="52" transform="matrix(0.866025 -0.5 0.866025 0.5 181.967 250)" fill="#D5002E"/>
<rect width="136" height="12" transform="matrix(0.866025 -0.5 0 1 181.967 238)" fill="#600015"/>
</g>
</svg>
