<svg width="500" height="500" viewBox="0 0 500 500" fill="none" xmlns="http://www.w3.org/2000/svg">
<g filter="url(#filter0_d_713_80995)">
<rect width="119.041" height="148.23" transform="matrix(0.866025 0.5 -0.866025 0.5 241.414 215.645)" fill="black"/>
</g>
<rect width="40" height="40" transform="matrix(0.866025 0.5 -0.866025 0.5 250.564 110)" fill="#414141"/>
<rect width="40" height="100" transform="matrix(0.866025 0.5 0 1 215.923 130)" fill="#2C2C2C"/>
<rect width="40" height="100" transform="matrix(0.866025 -0.5 0 1 250.564 150)" fill="#070707"/>
<rect width="40" height="40" transform="matrix(0.866025 0.5 -0.866025 0.5 215.923 130)" fill="#E6E6E6"/>
<rect width="40" height="100" transform="matrix(0.866025 0.5 0 1 181.282 150)" fill="#242424"/>
<rect width="40" height="100" transform="matrix(0.866025 -0.5 0 1 215.923 170)" fill="black"/>
<rect width="40" height="40" transform="matrix(0.866025 0.5 -0.866025 0.5 181.282 150)" fill="#B3B3B3"/>
<rect width="40" height="100" transform="matrix(0.866025 0.5 0 1 146.641 170)" fill="#2C2C2C"/>
<rect width="40" height="100" transform="matrix(0.866025 -0.5 0 1 181.282 190)" fill="#070707"/>
<rect width="40" height="40" transform="matrix(0.866025 0.5 -0.866025 0.5 146.641 170)" fill="#3A3A3A"/>
<rect width="40" height="100" transform="matrix(0.866025 0.5 0 1 112 190)" fill="#101010"/>
<rect width="40" height="100" transform="matrix(0.866025 -0.5 0 1 146.641 210)" fill="black"/>
<rect width="40" height="40" transform="matrix(0.866025 0.5 -0.866025 0.5 285.205 130)" fill="#CFCFCF"/>
<rect width="40" height="100" transform="matrix(0.866025 0.5 0 1 250.564 150)" fill="#242424"/>
<rect width="40" height="100" transform="matrix(0.866025 -0.5 0 1 285.205 170)" fill="black"/>
<rect width="40" height="40" transform="matrix(0.866025 0.5 -0.866025 0.5 250.564 150)" fill="#DBDBDB"/>
<rect width="40" height="100" transform="matrix(0.866025 0.5 0 1 215.923 170)" fill="#2C2C2C"/>
<rect width="40" height="100" transform="matrix(0.866025 -0.5 0 1 250.564 190)" fill="#070707"/>
<rect width="40" height="40" transform="matrix(0.866025 0.5 -0.866025 0.5 215.923 170)" fill="#C2C2C2"/>
<rect width="40" height="100" transform="matrix(0.866025 0.5 0 1 181.282 190)" fill="#242424"/>
<rect width="40" height="100" transform="matrix(0.866025 -0.5 0 1 215.923 210)" fill="black"/>
<rect width="40" height="40" transform="matrix(0.866025 0.5 -0.866025 0.5 181.282 190)" fill="#414141"/>
<rect width="40" height="100" transform="matrix(0.866025 0.5 0 1 146.641 210)" fill="#262626"/>
<rect width="40" height="100" transform="matrix(0.866025 -0.5 0 1 181.282 230)" fill="#070707"/>
<rect width="40" height="40" transform="matrix(0.866025 0.5 -0.866025 0.5 319.846 150)" fill="#414141"/>
<rect width="40" height="100" transform="matrix(0.866025 0.5 0 1 285.205 170)" fill="#2C2C2C"/>
<rect width="40" height="100" transform="matrix(0.866025 -0.5 0 1 319.846 190)" fill="#070707"/>
<rect width="40" height="40" transform="matrix(0.866025 0.5 -0.866025 0.5 285.205 170)" fill="#666666"/>
<rect width="40" height="100" transform="matrix(0.866025 0.5 0 1 250.564 190)" fill="#242424"/>
<rect width="40" height="100" transform="matrix(0.866025 -0.5 0 1 285.205 210)" fill="#1A1A1A"/>
<rect width="40" height="40" transform="matrix(0.866025 0.5 -0.866025 0.5 250.564 190)" fill="#808080"/>
<rect width="40" height="100" transform="matrix(0.866025 0.5 0 1 215.923 210)" fill="#2C2C2C"/>
<rect width="40" height="100" transform="matrix(0.866025 -0.5 0 1 250.564 230)" fill="#333333"/>
<rect width="40" height="40" transform="matrix(0.866025 0.5 -0.866025 0.5 215.923 210)" fill="#3A3A3A"/>
<rect width="40" height="100" transform="matrix(0.866025 0.5 0 1 181.282 230)" fill="#242424"/>
<rect width="40" height="100" transform="matrix(0.866025 -0.5 0 1 215.923 250)" fill="black"/>
<rect width="40" height="40" transform="matrix(0.866025 0.5 -0.866025 0.5 250.564 70)" fill="#E29A35"/>
<rect width="40" height="40" transform="matrix(0.866025 0.5 0 1 215.923 90)" fill="#CE841E"/>
<rect width="40" height="40" transform="matrix(0.866025 -0.5 0 1 250.564 110)" fill="#78582B"/>
<rect width="40" height="40" transform="matrix(0.866025 0.5 -0.866025 0.5 146.641 130)" fill="#E29A35"/>
<rect width="40" height="40" transform="matrix(0.866025 0.5 0 1 112 150)" fill="#CE841E"/>
<rect width="40" height="40" transform="matrix(0.866025 -0.5 0 1 146.641 170)" fill="#78582B"/>
<defs>
<filter id="filter0_d_713_80995" x="106.443" y="205.045" width="268.664" height="170.837" filterUnits="userSpaceOnUse" color-interpolation-filters="sRGB">
<feFlood flood-opacity="0" result="BackgroundImageFix"/>
<feColorMatrix in="SourceAlpha" type="matrix" values="0 0 0 0 0 0 0 0 0 0 0 0 0 0 0 0 0 0 127 0" result="hardAlpha"/>
<feMorphology radius="5" operator="dilate" in="SourceAlpha" result="effect1_dropShadow_713_80995"/>
<feOffset dx="12" dy="8"/>
<feGaussianBlur stdDeviation="6.8"/>
<feColorMatrix type="matrix" values="0 0 0 0 0 0 0 0 0 0 0 0 0 0 0 0 0 0 0.16 0"/>
<feBlend mode="normal" in2="BackgroundImageFix" result="effect1_dropShadow_713_80995"/>
<feBlend mode="normal" in="SourceGraphic" in2="effect1_dropShadow_713_80995" result="shape"/>
</filter>
</defs>
</svg>
