<svg width="500" height="500" viewBox="0 0 500 500" fill="none" xmlns="http://www.w3.org/2000/svg">
<g clip-path="url(#clip0_713_80995)">
<rect width="120" height="40" transform="matrix(0.866025 0.5 -0.866025 0.5 267.641 430)" fill="#373737"/>
<rect width="120" height="40" transform="matrix(0.866025 0.5 0 1 233 450)" fill="#252525"/>
<rect width="40" height="40" transform="matrix(0.866025 -0.5 0 1 336.923 510)" fill="#101010"/>
<rect width="120" height="40" transform="matrix(0.866025 0.5 -0.866025 0.5 267.641 390)" fill="#414141"/>
<rect width="120" height="40" transform="matrix(0.866025 0.5 0 1 233 410)" fill="#373737"/>
<rect width="40" height="40" transform="matrix(0.866025 -0.5 0 1 336.923 470)" fill="#181818"/>
<rect width="120" height="40" transform="matrix(0.866025 0.5 -0.866025 0.5 233 410)" fill="#373737"/>
<rect width="120" height="40" transform="matrix(0.866025 0.5 0 1 198.359 430)" fill="#252525"/>
<rect width="40" height="40" transform="matrix(0.866025 -0.5 0 1 302.282 490)" fill="#101010"/>
<rect width="120" height="40" transform="matrix(0.866025 0.5 -0.866025 0.5 198.359 430)" fill="#414141"/>
<rect width="120" height="40" transform="matrix(0.866025 0.5 0 1 163.718 450)" fill="#373737"/>
<rect width="40" height="40" transform="matrix(0.866025 -0.5 0 1 267.641 510)" fill="#181818"/>
<rect width="120" height="40" transform="matrix(0.866025 0.5 -0.866025 0.5 267.641 350)" fill="#373737"/>
<rect width="120" height="40" transform="matrix(0.866025 0.5 0 1 233 370)" fill="#252525"/>
<rect width="40" height="40" transform="matrix(0.866025 -0.5 0 1 336.923 430)" fill="#101010"/>
<rect width="120" height="40" transform="matrix(0.866025 0.5 -0.866025 0.5 233 370)" fill="#414141"/>
<rect width="120" height="40" transform="matrix(0.866025 0.5 0 1 198.359 390)" fill="#373737"/>
<rect width="40" height="40" transform="matrix(0.866025 -0.5 0 1 302.282 450)" fill="#181818"/>
<rect width="120" height="40" transform="matrix(0.866025 0.5 -0.866025 0.5 198.359 390)" fill="#373737"/>
<rect width="120" height="40" transform="matrix(0.866025 0.5 0 1 163.718 410)" fill="#252525"/>
<rect width="40" height="40" transform="matrix(0.866025 -0.5 0 1 267.641 470)" fill="#101010"/>
<rect width="120" height="40" transform="matrix(0.866025 0.5 -0.866025 0.5 163.718 410)" fill="#414141"/>
<rect width="120" height="40" transform="matrix(0.866025 0.5 0 1 129.077 430)" fill="#373737"/>
<rect width="40" height="40" transform="matrix(0.866025 -0.5 0 1 233 490)" fill="#181818"/>
<rect width="120" height="40" transform="matrix(0.866025 0.5 -0.866025 0.5 129.077 430)" fill="#373737"/>
<rect width="120" height="40" transform="matrix(0.866025 0.5 0 1 94.436 450)" fill="#252525"/>
<rect width="40" height="40" transform="matrix(0.866025 -0.5 0 1 198.359 510)" fill="#101010"/>
<rect width="120" height="40" transform="matrix(0.866025 0.5 -0.866025 0.5 267.641 310)" fill="#414141"/>
<rect width="120" height="40" transform="matrix(0.866025 0.5 0 1 233 330)" fill="#373737"/>
<rect width="40" height="40" transform="matrix(0.866025 -0.5 0 1 336.923 390)" fill="#181818"/>
<rect width="120" height="40" transform="matrix(0.866025 0.5 -0.866025 0.5 233 330)" fill="#373737"/>
<rect width="120" height="40" transform="matrix(0.866025 0.5 0 1 198.359 350)" fill="#252525"/>
<rect width="40" height="40" transform="matrix(0.866025 -0.5 0 1 302.282 410)" fill="#101010"/>
<rect width="120" height="40" transform="matrix(0.866025 0.5 -0.866025 0.5 198.359 350)" fill="#414141"/>
<rect width="120" height="40" transform="matrix(0.866025 0.5 0 1 163.718 370)" fill="#373737"/>
<rect width="40" height="40" transform="matrix(0.866025 -0.5 0 1 267.641 430)" fill="#181818"/>
<rect width="120" height="40" transform="matrix(0.866025 0.5 -0.866025 0.5 163.718 370)" fill="#373737"/>
<rect width="120" height="40" transform="matrix(0.866025 0.5 0 1 129.077 390)" fill="#252525"/>
<rect width="40" height="40" transform="matrix(0.866025 -0.5 0 1 233 450)" fill="#101010"/>
<rect width="120" height="40" transform="matrix(0.866025 0.5 -0.866025 0.5 129.077 390)" fill="#414141"/>
<rect width="120" height="40" transform="matrix(0.866025 0.5 0 1 94.436 410)" fill="#373737"/>
<rect width="40" height="40" transform="matrix(0.866025 -0.5 0 1 198.359 470)" fill="#181818"/>
<rect width="120" height="40" transform="matrix(0.866025 0.5 -0.866025 0.5 267.641 270)" fill="#373737"/>
<rect width="120" height="40" transform="matrix(0.866025 0.5 0 1 233 290)" fill="#252525"/>
<rect width="40" height="40" transform="matrix(0.866025 -0.5 0 1 336.923 350)" fill="#101010"/>
<rect width="120" height="40" transform="matrix(0.866025 0.5 -0.866025 0.5 233 290)" fill="#414141"/>
<rect width="120" height="40" transform="matrix(0.866025 0.5 0 1 198.359 310)" fill="#373737"/>
<rect width="40" height="40" transform="matrix(0.866025 -0.5 0 1 302.282 370)" fill="#181818"/>
<rect width="120" height="40" transform="matrix(0.866025 0.5 -0.866025 0.5 198.359 310)" fill="#373737"/>
<rect width="120" height="40" transform="matrix(0.866025 0.5 0 1 163.718 330)" fill="#252525"/>
<rect width="40" height="40" transform="matrix(0.866025 -0.5 0 1 267.641 390)" fill="#101010"/>
<rect width="120" height="40" transform="matrix(0.866025 0.5 -0.866025 0.5 163.718 330)" fill="#414141"/>
<rect width="120" height="40" transform="matrix(0.866025 0.5 0 1 129.077 350)" fill="#373737"/>
<rect width="40" height="40" transform="matrix(0.866025 -0.5 0 1 233 410)" fill="#181818"/>
<rect width="120" height="40" transform="matrix(0.866025 0.5 -0.866025 0.5 129.077 350)" fill="#373737"/>
<rect width="120" height="40" transform="matrix(0.866025 0.5 0 1 94.436 370)" fill="#252525"/>
<rect width="40" height="40" transform="matrix(0.866025 -0.5 0 1 198.359 430)" fill="#101010"/>
<rect width="40" height="40" transform="matrix(0.866025 0.5 -0.866025 0.5 116.941 383)" fill="#333333"/>
<rect width="40" height="120" transform="matrix(0.866025 0.5 0 1 82.2998 403)" fill="#212121"/>
<rect width="40" height="120" transform="matrix(0.866025 -0.5 0 1 116.941 423)" fill="#0E0E0E"/>
</g>
<defs>
<clipPath id="clip0_713_80995">
<rect width="500" height="500" fill="white"/>
</clipPath>
</defs>
</svg>
