<svg width="500" height="500" viewBox="0 0 500 500" fill="none" xmlns="http://www.w3.org/2000/svg">
<g filter="url(#filter0_d_713_80995)">
<rect width="119.041" height="148.23" transform="matrix(0.866025 0.5 -0.866025 0.5 241.406 215.648)" fill="#030202"/>
</g>
<rect width="40" height="40" transform="matrix(0.866025 0.5 -0.866025 0.5 250.564 110)" fill="#774B1B"/>
<rect width="40" height="100" transform="matrix(0.866025 0.5 0 1 215.923 130)" fill="#543513"/>
<rect width="40" height="100" transform="matrix(0.866025 -0.5 0 1 250.564 150)" fill="#190F06"/>
<rect width="40" height="40" transform="matrix(0.866025 0.5 -0.866025 0.5 215.923 130)" fill="#54351D"/>
<rect width="40" height="100" transform="matrix(0.866025 0.5 0 1 181.282 150)" fill="#482D10"/>
<rect width="40" height="100" transform="matrix(0.866025 -0.5 0 1 215.923 170)" fill="#0C0803"/>
<rect width="40" height="40" transform="matrix(0.866025 0.5 -0.866025 0.5 181.282 150)" fill="#A55E1B"/>
<rect width="40" height="100" transform="matrix(0.866025 0.5 0 1 146.641 170)" fill="#543513"/>
<rect width="40" height="100" transform="matrix(0.866025 -0.5 0 1 181.282 190)" fill="#190F06"/>
<rect width="40" height="40" transform="matrix(0.866025 0.5 -0.866025 0.5 146.641 170)" fill="#6B4318"/>
<rect width="40" height="100" transform="matrix(0.866025 0.5 0 1 112 190)" fill="#47280C"/>
<rect width="40" height="100" transform="matrix(0.866025 -0.5 0 1 146.641 210)" fill="#0C0803"/>
<rect width="40" height="40" transform="matrix(0.866025 0.5 -0.866025 0.5 285.205 130)" fill="#8F5117"/>
<rect width="40" height="100" transform="matrix(0.866025 0.5 0 1 250.564 150)" fill="#482D10"/>
<rect width="40" height="100" transform="matrix(0.866025 -0.5 0 1 285.205 170)" fill="#0C0803"/>
<rect width="40" height="40" transform="matrix(0.866025 0.5 -0.866025 0.5 250.564 150)" fill="#A55E1B"/>
<rect width="40" height="100" transform="matrix(0.866025 0.5 0 1 215.923 170)" fill="#543513"/>
<rect width="40" height="100" transform="matrix(0.866025 -0.5 0 1 250.564 190)" fill="#190F06"/>
<rect width="40" height="40" transform="matrix(0.866025 0.5 -0.866025 0.5 215.923 170)" fill="#54351D"/>
<rect width="40" height="100" transform="matrix(0.866025 0.5 0 1 181.282 190)" fill="#482D10"/>
<rect width="40" height="100" transform="matrix(0.866025 -0.5 0 1 215.923 210)" fill="#0C0803"/>
<rect width="40" height="40" transform="matrix(0.866025 0.5 -0.866025 0.5 181.282 190)" fill="#A55E1B"/>
<rect width="40" height="100" transform="matrix(0.866025 0.5 0 1 146.641 210)" fill="#804915"/>
<rect width="40" height="100" transform="matrix(0.866025 -0.5 0 1 181.282 230)" fill="#190F06"/>
<rect width="40" height="40" transform="matrix(0.866025 0.5 -0.866025 0.5 319.846 150)" fill="#774B1B"/>
<rect width="40" height="100" transform="matrix(0.866025 0.5 0 1 285.205 170)" fill="#543513"/>
<rect width="40" height="100" transform="matrix(0.866025 -0.5 0 1 319.846 190)" fill="#190F06"/>
<rect width="40" height="40" transform="matrix(0.866025 0.5 -0.866025 0.5 285.205 170)" fill="#914F11"/>
<rect width="40" height="100" transform="matrix(0.866025 0.5 0 1 250.564 190)" fill="#482D10"/>
<rect width="40" height="100" transform="matrix(0.866025 -0.5 0 1 285.205 210)" fill="#482809"/>
<rect width="40" height="40" transform="matrix(0.866025 0.5 -0.866025 0.5 250.564 190)" fill="#B7681E"/>
<rect width="40" height="100" transform="matrix(0.866025 0.5 0 1 215.923 210)" fill="#543513"/>
<rect width="40" height="100" transform="matrix(0.866025 -0.5 0 1 250.564 230)" fill="#532F0E"/>
<rect width="40" height="40" transform="matrix(0.866025 0.5 -0.866025 0.5 215.923 210)" fill="#6B4318"/>
<rect width="40" height="100" transform="matrix(0.866025 0.5 0 1 181.282 230)" fill="#482D10"/>
<rect width="40" height="100" transform="matrix(0.866025 -0.5 0 1 215.923 250)" fill="#0C0803"/>
<defs>
<filter id="filter0_d_713_80995" x="106.435" y="205.048" width="268.664" height="170.837" filterUnits="userSpaceOnUse" color-interpolation-filters="sRGB">
<feFlood flood-opacity="0" result="BackgroundImageFix"/>
<feColorMatrix in="SourceAlpha" type="matrix" values="0 0 0 0 0 0 0 0 0 0 0 0 0 0 0 0 0 0 127 0" result="hardAlpha"/>
<feMorphology radius="5" operator="dilate" in="SourceAlpha" result="effect1_dropShadow_713_80995"/>
<feOffset dx="12" dy="8"/>
<feGaussianBlur stdDeviation="6.8"/>
<feColorMatrix type="matrix" values="0 0 0 0 0.0107 0 0 0 0 0.0093 0 0 0 0 0.0093 0 0 0 0.16 0"/>
<feBlend mode="normal" in2="BackgroundImageFix" result="effect1_dropShadow_713_80995"/>
<feBlend mode="normal" in="SourceGraphic" in2="effect1_dropShadow_713_80995" result="shape"/>
</filter>
</defs>
</svg>
