<svg width="500" height="500" viewBox="0 0 500 500" fill="none" xmlns="http://www.w3.org/2000/svg">
<mask id="mask0_713_80995" style="mask-type:alpha" maskUnits="userSpaceOnUse" x="164" y="354" width="76" height="57">
<rect width="86" height="14" transform="matrix(0.866025 0.5 0 1 164.631 354)" fill="#D9D9D9"/>
</mask>
<g mask="url(#mask0_713_80995)">
<rect width="25" height="14" transform="matrix(0.866025 -0.5 0 1 164.631 354)" fill="#262626"/>
<rect width="86" height="25" transform="matrix(0.866025 0.5 -0.866025 0.5 186.282 355.5)" fill="black"/>
<rect width="86" height="14" transform="matrix(0.866025 0.5 0 1 186.282 341.5)" fill="black"/>
</g>
<g filter="url(#filter0_d_713_80995)">
<rect width="51.5193" height="40.3363" transform="matrix(0.866025 0.5 -0.866025 0.5 188.671 368.547)" fill="#4D4D4D"/>
</g>
<rect width="54" height="27.5317" transform="matrix(0.866025 0.5 -0.866025 0.5 175.439 360.234)" fill="#D2123C"/>
<rect width="54" height="13.8935" transform="matrix(0.866025 0.5 0 1 151.596 374)" fill="#AA0F31"/>
<path d="M198.361 400.997L222.153 387.201L234.183 394.151L198.361 414.889V400.997Z" fill="#67091E"/>
<defs>
<filter id="filter0_d_713_80995" x="138.739" y="365.547" width="109.549" height="75.9297" filterUnits="userSpaceOnUse" color-interpolation-filters="sRGB">
<feFlood flood-opacity="0" result="BackgroundImageFix"/>
<feColorMatrix in="SourceAlpha" type="matrix" values="0 0 0 0 0 0 0 0 0 0 0 0 0 0 0 0 0 0 127 0" result="hardAlpha"/>
<feOffset dy="12"/>
<feGaussianBlur stdDeviation="7.5"/>
<feColorMatrix type="matrix" values="0 0 0 0 0.0992 0 0 0 0 0.06848 0 0 0 0 0.0608 0 0 0 0.5 0"/>
<feBlend mode="normal" in2="BackgroundImageFix" result="effect1_dropShadow_713_80995"/>
<feBlend mode="normal" in="SourceGraphic" in2="effect1_dropShadow_713_80995" result="shape"/>
</filter>
</defs>
</svg>
